<svg width="37" height="30" viewBox="0 0 37 30" fill="none" xmlns="http://www.w3.org/2000/svg">
<path d="M0 2.79445V9.5474C0 11.6041 2.50611 12.7011 4.03763 11.2614L11.3471 4.5084C12.9483 3.0344 11.904 0.429199 9.71119 0.429199H2.40169C1.07902 0.429199 0 1.49185 0 2.79445Z" fill="white"/>
<path d="M34.5982 0.429199H27.2887C25.1307 0.429199 24.0517 3.0344 25.6528 4.5084L32.9623 11.2614C34.4938 12.6668 36.9999 11.6041 36.9999 9.5474V2.79445C36.9999 1.49185 35.9209 0.429199 34.5982 0.429199Z" fill="white"/>
<path d="M20.1533 16.9173L32.9624 28.7779C34.4939 30.1833 37 29.1206 37 27.0639V20.2424C37 19.5911 36.7215 18.9741 36.2342 18.5284L20.1533 3.6171C19.2135 2.76012 17.7865 2.76012 16.8467 3.6171L0.765757 18.5284C0.278457 18.9741 0 19.5911 0 20.2424V27.0639C0 29.1206 2.50611 30.2176 4.03763 28.7779L16.8467 16.9173C17.7865 16.0604 19.2135 16.0604 20.1533 16.9173Z" fill="white"/>
</svg>
